Plot

A group of family and friends on a camping trip through the Texas badlands are taken
on a one-way ride to Hell after they inadvertently witness a ritual sacrifice at a deserted campsite...
 
http://www.imdb.com/title/tt1654833/

Encoded By .......: BigPerm1828
Runtime ..........: 1h 34mn
File Size ........: 1.01 GB
Resolution .......: 704x396
IMDb URL .........: http://www.imdb.com/title/tt1654833/
Language .........: Spanish and English
Subtitles ........: English
Video
ID : 0
Format : MPEG-4 Visual
Format profile : Advanced Simple@L5
Format settings, BVOP : Yes
Format settings, QPel : No
Format settings, GMC : No warppoints
Format settings, Matrix : Default (H.263)
Codec ID : XVID
Codec ID/Hint : XviD
Duration : 1h 34mn
Bit rate : 57.7 Kbps
Width : 704 pixels
Height : 396 pixels
Display aspect ratio : 16:9
Frame rate : 29.970 fps
Color space : YUV
Chroma subsampling : 4:2:0
Bit depth : 8 bits
Scan type : Progressive
Compression mode : Lossy
Bits/(Pixel*Frame) : 0.007
Stream size : 38.8 MiB (4%)
Writing library : XviD 1.2.1 (UTC 2008-12-04)

Audio
ID : 1
Format : AC-3
Format/Info : Audio Coding 3
Codec ID : 2000
Duration : 1h 34mn
Bit rate mode : Constant
Bit rate : 448 Kbps
Channel(s) : 6 channels
Sampling rate : 48.0 KHz
Bit depth : 16 bits
Compression mode : Lossy
Stream size : 301 MiB (29%)
Alignment : Aligned on interleaves
 
http://leetleech.org/images/72979488850054488594.png
 
http://leetleech.org/images/74679459796232093970.png
 
http://leetleech.org/images/10793006852436657225.png
 
http://leetleech.org/images/89993656326149161207.png